<?xml version="1.0" standalone="no"?><!DOCTYPE svg PUBLIC "-//W3C//DTD SVG 1.1//EN" "http://www.w3.org/Graphics/SVG/1.1/DTD/svg11.dtd"><svg class="icon" width="32px" height="32.00px" viewBox="0 0 1024 1024" version="1.1" xmlns="http://www.w3.org/2000/svg"><path fill="#d81e06" d="M512.64 603.264l23.68 0.32c182.912 3.84 299.52 55.808 337.472 122.624 11.968 20.992 18.688 46.976 21.12 78.72l0.832 14.016 0.256 14.272V960h-87.68v-125.952l-0.256-12.544c-0.896-23.552-4.608-40.064-9.92-49.408-19.2-33.92-101.312-71.424-245.12-77.312l-18.304-0.512-22.08-0.384-23.104 0.384c-83.968 1.728-149.632 14.08-198.144 33.92-29.952 12.288-50.432 26.24-60.096 36.672l-3.136 3.776-2.304 3.456c-5.44 9.6-9.152 26.432-9.984 50.432l-0.128 10.688V960H128v-126.72c0-38.848 5.12-70.912 17.728-98.048l5.888-11.328 5.056-7.68c43.84-60.48 149.12-105.28 310.848-112l20.48-0.64 24.64-0.32zM512 128c103.872 0 188.032 86.976 188.032 194.24v64.768c0 107.328-84.16 194.304-188.032 194.304-103.808 0-187.968-87.04-187.968-194.304V322.24C324.032 215.04 408.192 128 512 128z m0 90.688c-55.36 0-100.224 46.336-100.224 103.552v64.768c0 57.216 44.864 103.68 100.224 103.68 55.424 0 100.288-46.464 100.288-103.68V322.24c0-57.216-44.864-103.552-100.288-103.552z"  /></svg>